<svg width="37" height="37" viewBox="0 0 37 37" fill="none" xmlns="http://www.w3.org/2000/svg">
<path d="M20.0849 3.08331C21.8193 3.08794 22.6996 3.09719 23.4596 3.11877L23.7587 3.12956C24.104 3.1419 24.4447 3.15731 24.8564 3.17581C26.4967 3.2529 27.616 3.5119 28.598 3.89269C29.6155 4.28427 30.4727 4.8146 31.3298 5.67023C32.1138 6.4409 32.7203 7.37314 33.1074 8.40206C33.4882 9.3841 33.7472 10.5034 33.8242 12.1452C33.8427 12.5553 33.8582 12.896 33.8705 13.2429L33.8797 13.542C33.9029 14.3005 33.9121 15.1808 33.9152 16.9151L33.9167 18.0652V20.0848C33.9205 21.2093 33.9087 22.3338 33.8813 23.458L33.872 23.7571C33.8597 24.1039 33.8443 24.4446 33.8258 24.8547C33.7487 26.4966 33.4866 27.6143 33.1074 28.5979C32.7215 29.6274 32.1147 30.5598 31.3298 31.3297C30.5589 32.1134 29.6268 32.7199 28.598 33.1073C27.616 33.4881 26.4967 33.7471 24.8564 33.8241C24.4906 33.8414 24.1247 33.8568 23.7587 33.8704L23.4596 33.8796C22.6996 33.9012 21.8193 33.912 20.0849 33.9151L18.9348 33.9166H16.9168C15.7918 33.9205 14.6668 33.9087 13.5421 33.8812L13.243 33.8719C12.877 33.8581 12.5111 33.8421 12.1453 33.8241C10.505 33.7471 9.38574 33.4881 8.40216 33.1073C7.37336 32.7209 6.44149 32.1142 5.67187 31.3297C4.88723 30.5593 4.28009 29.6271 3.89278 28.5979C3.51199 27.6159 3.25299 26.4966 3.17591 24.8547C3.15873 24.4889 3.14332 24.123 3.12966 23.7571L3.12195 23.458C3.09354 22.3338 3.08069 21.2093 3.08341 20.0848V16.9151C3.07911 15.7907 3.09041 14.6662 3.11733 13.542L3.12812 13.2429C3.14045 12.896 3.15587 12.5553 3.17437 12.1452C3.25145 10.5034 3.51045 9.38565 3.89124 8.40206C4.27838 7.37208 4.88673 6.43956 5.67341 5.67023C6.44284 4.88625 7.37409 4.27963 8.40216 3.89269C9.38574 3.5119 10.5035 3.2529 12.1453 3.17581C12.5554 3.15731 12.8977 3.1419 13.243 3.12956L13.5421 3.12031C14.6662 3.09292 15.7907 3.0811 16.9152 3.08485L20.0849 3.08331ZM18.5001 10.7916C16.4557 10.7916 14.4951 11.6038 13.0495 13.0494C11.6039 14.495 10.7917 16.4556 10.7917 18.5C10.7917 20.5444 11.6039 22.505 13.0495 23.9506C14.4951 25.3962 16.4557 26.2083 18.5001 26.2083C20.5445 26.2083 22.5051 25.3962 23.9507 23.9506C25.3963 22.505 26.2084 20.5444 26.2084 18.5C26.2084 16.4556 25.3963 14.495 23.9507 13.0494C22.5051 11.6038 20.5445 10.7916 18.5001 10.7916ZM18.5001 13.875C19.1074 13.8749 19.7089 13.9944 20.27 14.2267C20.8312 14.4591 21.3411 14.7997 21.7707 15.2291C22.2002 15.6585 22.541 16.1683 22.7735 16.7294C23.006 17.2904 23.1257 17.8918 23.1258 18.4992C23.1259 19.1066 23.0064 19.708 22.7741 20.2692C22.5418 20.8303 22.2012 21.3403 21.7718 21.7698C21.3424 22.1993 20.8326 22.5401 20.2715 22.7726C19.7104 23.0051 19.109 23.1249 18.5016 23.125C17.275 23.125 16.0986 22.6377 15.2312 21.7703C14.3639 20.903 13.8766 19.7266 13.8766 18.5C13.8766 17.2734 14.3639 16.097 15.2312 15.2296C16.0986 14.3623 17.275 13.875 18.5016 13.875M26.5954 8.47915C26.0843 8.47915 25.5941 8.68218 25.2327 9.04358C24.8713 9.40497 24.6683 9.89514 24.6683 10.4062C24.6683 10.9173 24.8713 11.4075 25.2327 11.7689C25.5941 12.1303 26.0843 12.3333 26.5954 12.3333C27.1065 12.3333 27.5966 12.1303 27.958 11.7689C28.3194 11.4075 28.5225 10.9173 28.5225 10.4062C28.5225 9.89514 28.3194 9.40497 27.958 9.04358C27.5966 8.68218 27.1065 8.47915 26.5954 8.47915Z" fill="#2A2A2A"/>
</svg>
