<svg width="39" height="37" viewBox="0 0 39 37" fill="none" xmlns="http://www.w3.org/2000/svg">
<path fill-rule="evenodd" clip-rule="evenodd" d="M7.3125 2.3125C6.01957 2.3125 4.77959 2.79978 3.86535 3.66713C2.95111 4.53449 2.4375 5.71087 2.4375 6.9375V30.0625C2.4375 31.2891 2.95111 32.4655 3.86535 33.3329C4.77959 34.2002 6.01957 34.6875 7.3125 34.6875H31.6875C32.9804 34.6875 34.2204 34.2002 35.1346 33.3329C36.0489 32.4655 36.5625 31.2891 36.5625 30.0625V6.9375C36.5625 5.71087 36.0489 4.53449 35.1346 3.66713C34.2204 2.79978 32.9804 2.3125 31.6875 2.3125H7.3125ZM9.99863 12.2493C10.7712 12.2493 11.512 11.9582 12.0583 11.4399C12.6046 10.9217 12.9114 10.2188 12.9114 9.48588C12.9114 8.75297 12.6046 8.05007 12.0583 7.53183C11.512 7.01358 10.7712 6.72244 9.99863 6.72244C9.2261 6.72244 8.48521 7.01358 7.93896 7.53183C7.3927 8.05007 7.08581 8.75297 7.08581 9.48588C7.08581 10.2188 7.3927 10.9217 7.93896 11.4399C8.48521 11.9582 9.2261 12.2493 9.99863 12.2493ZM12.4361 29.6301V14.4161H7.56112V29.6301H12.4361ZM15.6731 14.4161H20.5481V16.4534C21.2672 15.3851 22.8467 13.9467 25.7839 13.9467C29.289 13.9467 31.1927 16.1505 31.1927 20.3431C31.1927 20.5443 31.2122 21.4623 31.2122 21.4623V29.6278H26.3372V21.4646C26.3372 20.3431 26.0886 18.1392 23.4609 18.1392C20.8309 18.1392 20.6091 20.9096 20.5481 22.7226V29.6278H15.6731V14.4161Z" fill="#2A2A2A"/>
</svg>
