<svg width="1398" height="745" viewBox="0 0 1398 745" fill="none" xmlns="http://www.w3.org/2000/svg">
<g clip-path="url(#clip0_769_1074)">
<rect width="1398" height="745" rx="12" fill="white"/>
<path d="M616.5 337V303.4H622.02V337H616.5ZM637.86 337V303.4H643.38V337H637.86ZM620.292 322.12V317.08H639.06V322.12H620.292ZM660.511 337.48C658.271 337.48 656.239 336.952 654.415 335.896C652.591 334.808 651.135 333.352 650.047 331.528C648.991 329.704 648.463 327.672 648.463 325.432C648.463 323.192 648.991 321.176 650.047 319.384C651.135 317.592 652.591 316.168 654.415 315.112C656.239 314.024 658.271 313.48 660.511 313.48C662.783 313.48 664.831 314.008 666.655 315.064C668.479 316.12 669.919 317.56 670.975 319.384C672.063 321.176 672.607 323.192 672.607 325.432C672.607 327.672 672.063 329.704 670.975 331.528C669.919 333.352 668.479 334.808 666.655 335.896C664.831 336.952 662.783 337.48 660.511 337.48ZM660.511 332.392C661.823 332.392 662.975 332.104 663.967 331.528C664.991 330.92 665.775 330.088 666.319 329.032C666.895 327.976 667.183 326.776 667.183 325.432C667.183 324.088 666.895 322.904 666.319 321.88C665.743 320.856 664.959 320.056 663.967 319.48C662.975 318.872 661.823 318.568 660.511 318.568C659.231 318.568 658.079 318.872 657.055 319.48C656.063 320.056 655.279 320.856 654.703 321.88C654.159 322.904 653.887 324.088 653.887 325.432C653.887 326.776 654.159 327.976 654.703 329.032C655.279 330.088 656.063 330.92 657.055 331.528C658.079 332.104 659.231 332.392 660.511 332.392ZM676.998 337V302.44H682.278V337H676.998ZM697.803 337.48C695.723 337.48 693.835 336.952 692.139 335.896C690.475 334.84 689.147 333.416 688.155 331.624C687.195 329.8 686.715 327.768 686.715 325.528C686.715 323.256 687.195 321.224 688.155 319.432C689.147 317.608 690.475 316.168 692.139 315.112C693.835 314.024 695.723 313.48 697.803 313.48C699.563 313.48 701.115 313.864 702.459 314.632C703.835 315.368 704.923 316.392 705.723 317.704C706.523 319.016 706.923 320.504 706.923 322.168V328.792C706.923 330.456 706.523 331.944 705.723 333.256C704.955 334.568 703.883 335.608 702.507 336.376C701.131 337.112 699.563 337.48 697.803 337.48ZM698.667 332.488C699.979 332.488 701.115 332.2 702.075 331.624C703.067 331.016 703.835 330.184 704.379 329.128C704.923 328.072 705.195 326.856 705.195 325.48C705.195 324.104 704.923 322.888 704.379 321.832C703.835 320.776 703.067 319.96 702.075 319.384C701.115 318.776 699.979 318.472 698.667 318.472C697.387 318.472 696.251 318.776 695.259 319.384C694.299 319.96 693.531 320.776 692.955 321.832C692.411 322.888 692.139 324.104 692.139 325.48C692.139 326.856 692.411 328.072 692.955 329.128C693.531 330.184 694.299 331.016 695.259 331.624C696.251 332.2 697.387 332.488 698.667 332.488ZM710.139 337H704.859V330.808L705.771 325.192L704.859 319.624V302.44H710.139V337ZM729.112 337V304.36H734.392V337H729.112ZM723.592 318.76V313.96H739.912V318.76H723.592ZM743.796 337V313.96H749.076V337H743.796ZM746.436 309.736C745.54 309.736 744.788 309.432 744.18 308.824C743.604 308.216 743.316 307.464 743.316 306.568C743.316 305.672 743.604 304.92 744.18 304.312C744.788 303.704 745.54 303.4 746.436 303.4C747.364 303.4 748.116 303.704 748.692 304.312C749.268 304.92 749.556 305.672 749.556 306.568C749.556 307.464 749.268 308.216 748.692 308.824C748.116 309.432 747.364 309.736 746.436 309.736ZM764.598 347.08C762.166 347.08 760.038 346.632 758.214 345.736C756.39 344.872 754.918 343.64 753.798 342.04L757.254 338.584C758.182 339.736 759.238 340.6 760.422 341.176C761.606 341.752 763.03 342.04 764.694 342.04C766.774 342.04 768.422 341.496 769.638 340.408C770.854 339.352 771.462 337.896 771.462 336.04V330.376L772.374 325.288L771.462 320.152V313.96H776.742V336.04C776.742 338.248 776.23 340.168 775.206 341.8C774.182 343.464 772.758 344.76 770.934 345.688C769.11 346.616 766.998 347.08 764.598 347.08ZM764.358 336.52C762.31 336.52 760.454 336.024 758.79 335.032C757.158 334.008 755.862 332.616 754.902 330.856C753.974 329.096 753.51 327.128 753.51 324.952C753.51 322.776 753.974 320.824 754.902 319.096C755.862 317.368 757.158 316.008 758.79 315.016C760.454 313.992 762.31 313.48 764.358 313.48C766.182 313.48 767.782 313.848 769.158 314.584C770.534 315.32 771.606 316.344 772.374 317.656C773.142 318.936 773.526 320.44 773.526 322.168V327.832C773.526 329.528 773.126 331.032 772.326 332.344C771.558 333.656 770.486 334.68 769.11 335.416C767.734 336.152 766.15 336.52 764.358 336.52ZM765.414 331.528C766.694 331.528 767.814 331.256 768.774 330.712C769.734 330.168 770.47 329.416 770.982 328.456C771.526 327.464 771.798 326.312 771.798 325C771.798 323.688 771.526 322.552 770.982 321.592C770.47 320.6 769.734 319.832 768.774 319.288C767.814 318.744 766.694 318.472 765.414 318.472C764.134 318.472 762.998 318.744 762.006 319.288C761.046 319.832 760.294 320.6 759.75 321.592C759.206 322.552 758.934 323.688 758.934 325C758.934 326.28 759.206 327.416 759.75 328.408C760.294 329.4 761.046 330.168 762.006 330.712C762.998 331.256 764.134 331.528 765.414 331.528ZM798.4 337V323.704C798.4 322.168 797.904 320.904 796.912 319.912C795.952 318.92 794.704 318.424 793.168 318.424C792.144 318.424 791.232 318.648 790.432 319.096C789.632 319.544 789.008 320.168 788.56 320.968C788.112 321.768 787.888 322.68 787.888 323.704L785.824 322.552C785.824 320.792 786.208 319.24 786.976 317.896C787.744 316.52 788.8 315.448 790.144 314.68C791.52 313.88 793.056 313.48 794.752 313.48C796.48 313.48 798.016 313.864 799.36 314.632C800.704 315.4 801.76 316.472 802.528 317.848C803.296 319.192 803.68 320.76 803.68 322.552V337H798.4ZM782.608 337V302.44H787.888V337H782.608ZM812.268 337V304.36H817.548V337H812.268ZM806.748 318.76V313.96H823.068V318.76H806.748ZM828.057 325.864L827.337 302.44H832.857L832.137 325.864H828.057ZM830.073 337.48C829.049 337.48 828.201 337.144 827.529 336.472C826.889 335.768 826.569 334.92 826.569 333.928C826.569 332.904 826.889 332.056 827.529 331.384C828.201 330.712 829.049 330.376 830.073 330.376C831.097 330.376 831.929 330.712 832.569 331.384C833.241 332.056 833.577 332.904 833.577 333.928C833.577 334.92 833.241 335.768 832.569 336.472C831.929 337.144 831.097 337.48 830.073 337.48ZM440.985 391.48C438.329 391.48 436.073 391 434.217 390.04C432.361 389.08 430.697 387.672 429.225 385.816L432.969 382.072C433.897 383.416 435.001 384.472 436.281 385.24C437.561 385.976 439.193 386.344 441.177 386.344C443.033 386.344 444.505 385.96 445.593 385.192C446.713 384.424 447.273 383.368 447.273 382.024C447.273 380.904 446.985 379.992 446.409 379.288C445.833 378.584 445.065 378.008 444.105 377.56C443.177 377.08 442.137 376.664 440.985 376.312C439.865 375.928 438.729 375.512 437.577 375.064C436.457 374.584 435.417 373.992 434.457 373.288C433.529 372.584 432.777 371.672 432.201 370.552C431.625 369.432 431.337 368.008 431.337 366.28C431.337 364.296 431.817 362.616 432.777 361.24C433.769 359.832 435.097 358.76 436.761 358.024C438.425 357.288 440.281 356.92 442.329 356.92C444.537 356.92 446.505 357.352 448.233 358.216C449.993 359.08 451.417 360.184 452.505 361.528L448.761 365.272C447.801 364.184 446.793 363.384 445.737 362.872C444.713 362.328 443.529 362.056 442.185 362.056C440.521 362.056 439.209 362.392 438.249 363.064C437.321 363.736 436.857 364.68 436.857 365.896C436.857 366.92 437.145 367.752 437.721 368.392C438.297 369 439.049 369.528 439.977 369.976C440.937 370.392 441.977 370.792 443.097 371.176C444.249 371.56 445.385 371.992 446.505 372.472C447.657 372.952 448.697 373.576 449.625 374.344C450.585 375.08 451.353 376.04 451.929 377.224C452.505 378.408 452.793 379.896 452.793 381.688C452.793 384.696 451.721 387.08 449.577 388.84C447.465 390.6 444.601 391.48 440.985 391.48ZM467.855 391.48C465.615 391.48 463.583 390.952 461.759 389.896C459.935 388.808 458.479 387.352 457.391 385.528C456.335 383.704 455.807 381.672 455.807 379.432C455.807 377.192 456.335 375.176 457.391 373.384C458.479 371.592 459.935 370.168 461.759 369.112C463.583 368.024 465.615 367.48 467.855 367.48C470.127 367.48 472.175 368.008 473.999 369.064C475.823 370.12 477.263 371.56 478.319 373.384C479.407 375.176 479.951 377.192 479.951 379.432C479.951 381.672 479.407 383.704 478.319 385.528C477.263 387.352 475.823 388.808 473.999 389.896C472.175 390.952 470.127 391.48 467.855 391.48ZM467.855 386.392C469.167 386.392 470.319 386.104 471.311 385.528C472.335 384.92 473.119 384.088 473.663 383.032C474.239 381.976 474.527 380.776 474.527 379.432C474.527 378.088 474.239 376.904 473.663 375.88C473.087 374.856 472.303 374.056 471.311 373.48C470.319 372.872 469.167 372.568 467.855 372.568C466.575 372.568 465.423 372.872 464.399 373.48C463.407 374.056 462.623 374.856 462.047 375.88C461.503 376.904 461.231 378.088 461.231 379.432C461.231 380.776 461.503 381.976 462.047 383.032C462.623 384.088 463.407 384.92 464.399 385.528C465.423 386.104 466.575 386.392 467.855 386.392ZM484.342 391V367.96H489.622V391H484.342ZM499.654 391V377.272C499.654 375.736 499.174 374.552 498.214 373.72C497.254 372.856 496.07 372.424 494.662 372.424C493.702 372.424 492.838 372.616 492.07 373C491.334 373.384 490.742 373.944 490.294 374.68C489.846 375.384 489.622 376.248 489.622 377.272L487.558 376.12C487.558 374.36 487.942 372.84 488.71 371.56C489.478 370.28 490.518 369.288 491.83 368.584C493.142 367.848 494.614 367.48 496.246 367.48C497.878 367.48 499.35 367.832 500.662 368.536C501.974 369.24 503.014 370.232 503.782 371.512C504.55 372.792 504.934 374.328 504.934 376.12V391H499.654ZM514.966 391V377.272C514.966 375.736 514.486 374.552 513.526 373.72C512.566 372.856 511.382 372.424 509.974 372.424C509.046 372.424 508.198 372.616 507.43 373C506.662 373.384 506.054 373.944 505.606 374.68C505.158 375.384 504.934 376.248 504.934 377.272L501.958 376.12C502.118 374.36 502.63 372.84 503.494 371.56C504.358 370.28 505.462 369.288 506.806 368.584C508.182 367.848 509.686 367.48 511.318 367.48C512.982 367.48 514.486 367.832 515.83 368.536C517.174 369.24 518.246 370.232 519.046 371.512C519.846 372.792 520.246 374.328 520.246 376.12V391H514.966ZM536.39 391.48C534.086 391.48 532.006 390.968 530.15 389.944C528.326 388.888 526.87 387.448 525.782 385.624C524.726 383.8 524.198 381.752 524.198 379.48C524.198 377.208 524.726 375.176 525.782 373.384C526.838 371.56 528.262 370.12 530.054 369.064C531.878 368.008 533.894 367.48 536.102 367.48C538.246 367.48 540.134 367.976 541.766 368.968C543.43 369.96 544.726 371.32 545.654 373.048C546.614 374.776 547.094 376.744 547.094 378.952C547.094 379.336 547.062 379.736 546.998 380.152C546.966 380.536 546.902 380.968 546.806 381.448H527.894V377.128H544.07L542.102 378.856C542.038 377.448 541.766 376.264 541.286 375.304C540.806 374.344 540.118 373.608 539.222 373.096C538.358 372.584 537.286 372.328 536.006 372.328C534.662 372.328 533.494 372.616 532.502 373.192C531.51 373.768 530.742 374.584 530.198 375.64C529.654 376.664 529.382 377.896 529.382 379.336C529.382 380.776 529.67 382.04 530.246 383.128C530.822 384.216 531.638 385.064 532.694 385.672C533.75 386.248 534.966 386.536 536.342 386.536C537.526 386.536 538.614 386.328 539.606 385.912C540.63 385.496 541.494 384.888 542.198 384.088L545.558 387.496C544.438 388.808 543.078 389.8 541.478 390.472C539.878 391.144 538.182 391.48 536.39 391.48ZM554.221 391V358.36H559.501V391H554.221ZM548.701 372.76V367.96H565.021V372.76H548.701ZM584.65 391V377.704C584.65 376.168 584.154 374.904 583.162 373.912C582.202 372.92 580.954 372.424 579.418 372.424C578.394 372.424 577.482 372.648 576.682 373.096C575.882 373.544 575.258 374.168 574.81 374.968C574.362 375.768 574.138 376.68 574.138 377.704L572.074 376.552C572.074 374.792 572.458 373.24 573.226 371.896C573.994 370.52 575.05 369.448 576.394 368.68C577.77 367.88 579.306 367.48 581.002 367.48C582.73 367.48 584.266 367.864 585.61 368.632C586.954 369.4 588.01 370.472 588.778 371.848C589.546 373.192 589.93 374.76 589.93 376.552V391H584.65ZM568.858 391V356.44H574.138V391H568.858ZM595.343 391V367.96H600.623V391H595.343ZM597.983 363.736C597.087 363.736 596.335 363.432 595.727 362.824C595.151 362.216 594.863 361.464 594.863 360.568C594.863 359.672 595.151 358.92 595.727 358.312C596.335 357.704 597.087 357.4 597.983 357.4C598.911 357.4 599.663 357.704 600.239 358.312C600.815 358.92 601.103 359.672 601.103 360.568C601.103 361.464 600.815 362.216 600.239 362.824C599.663 363.432 598.911 363.736 597.983 363.736ZM622.337 391V377.704C622.337 376.168 621.841 374.904 620.849 373.912C619.889 372.92 618.641 372.424 617.105 372.424C616.081 372.424 615.169 372.648 614.369 373.096C613.569 373.544 612.945 374.168 612.497 374.968C612.049 375.768 611.825 376.68 611.825 377.704L609.761 376.552C609.761 374.792 610.145 373.24 610.913 371.896C611.681 370.52 612.737 369.448 614.081 368.68C615.457 367.88 616.993 367.48 618.689 367.48C620.417 367.48 621.953 367.928 623.297 368.824C624.641 369.688 625.697 370.824 626.465 372.232C627.233 373.608 627.617 375.048 627.617 376.552V391H622.337ZM606.545 391V367.96H611.825V391H606.545ZM642.583 401.08C640.151 401.08 638.023 400.632 636.199 399.736C634.375 398.872 632.903 397.64 631.783 396.04L635.239 392.584C636.167 393.736 637.223 394.6 638.407 395.176C639.591 395.752 641.015 396.04 642.679 396.04C644.759 396.04 646.407 395.496 647.623 394.408C648.839 393.352 649.447 391.896 649.447 390.04V384.376L650.359 379.288L649.447 374.152V367.96H654.727V390.04C654.727 392.248 654.215 394.168 653.191 395.8C652.167 397.464 650.743 398.76 648.919 399.688C647.095 400.616 644.983 401.08 642.583 401.08ZM642.343 390.52C640.295 390.52 638.439 390.024 636.775 389.032C635.143 388.008 633.847 386.616 632.887 384.856C631.959 383.096 631.495 381.128 631.495 378.952C631.495 376.776 631.959 374.824 632.887 373.096C633.847 371.368 635.143 370.008 636.775 369.016C638.439 367.992 640.295 367.48 642.343 367.48C644.167 367.48 645.767 367.848 647.143 368.584C648.519 369.32 649.591 370.344 650.359 371.656C651.127 372.936 651.511 374.44 651.511 376.168V381.832C651.511 383.528 651.111 385.032 650.311 386.344C649.543 387.656 648.471 388.68 647.095 389.416C645.719 390.152 644.135 390.52 642.343 390.52ZM643.399 385.528C644.679 385.528 645.799 385.256 646.759 384.712C647.719 384.168 648.455 383.416 648.967 382.456C649.511 381.464 649.783 380.312 649.783 379C649.783 377.688 649.511 376.552 648.967 375.592C648.455 374.6 647.719 373.832 646.759 373.288C645.799 372.744 644.679 372.472 643.399 372.472C642.119 372.472 640.983 372.744 639.991 373.288C639.031 373.832 638.279 374.6 637.735 375.592C637.191 376.552 636.919 377.688 636.919 379C636.919 380.28 637.191 381.416 637.735 382.408C638.279 383.4 639.031 384.168 639.991 384.712C640.983 385.256 642.119 385.528 643.399 385.528ZM673.369 391V364.936C673.369 363.176 673.753 361.624 674.521 360.28C675.321 358.936 676.409 357.88 677.785 357.112C679.193 356.344 680.809 355.96 682.633 355.96C684.041 355.96 685.241 356.2 686.233 356.68C687.225 357.16 688.153 357.848 689.017 358.744L685.609 362.152C685.225 361.768 684.809 361.464 684.361 361.24C683.913 361.016 683.337 360.904 682.633 360.904C681.353 360.904 680.361 361.256 679.657 361.96C678.985 362.632 678.649 363.608 678.649 364.888V391H673.369ZM667.849 372.76V367.96H685.609V372.76H667.849ZM688.717 391V367.96H693.997V391H688.717ZM693.997 378.184L692.173 377.272C692.173 374.36 692.813 372.008 694.093 370.216C695.405 368.392 697.373 367.48 699.997 367.48C701.149 367.48 702.189 367.688 703.117 368.104C704.045 368.52 704.909 369.192 705.709 370.12L702.253 373.672C701.837 373.224 701.373 372.904 700.861 372.712C700.349 372.52 699.757 372.424 699.085 372.424C697.613 372.424 696.397 372.888 695.437 373.816C694.477 374.744 693.997 376.2 693.997 378.184ZM718.265 391.48C715.961 391.48 713.881 390.968 712.025 389.944C710.201 388.888 708.745 387.448 707.657 385.624C706.601 383.8 706.073 381.752 706.073 379.48C706.073 377.208 706.601 375.176 707.657 373.384C708.713 371.56 710.137 370.12 711.929 369.064C713.753 368.008 715.769 367.48 717.977 367.48C720.121 367.48 722.009 367.976 723.641 368.968C725.305 369.96 726.601 371.32 727.529 373.048C728.489 374.776 728.969 376.744 728.969 378.952C728.969 379.336 728.937 379.736 728.873 380.152C728.841 380.536 728.777 380.968 728.681 381.448H709.769V377.128H725.945L723.977 378.856C723.913 377.448 723.641 376.264 723.161 375.304C722.681 374.344 721.993 373.608 721.097 373.096C720.233 372.584 719.161 372.328 717.881 372.328C716.537 372.328 715.369 372.616 714.377 373.192C713.385 373.768 712.617 374.584 712.073 375.64C711.529 376.664 711.257 377.896 711.257 379.336C711.257 380.776 711.545 382.04 712.121 383.128C712.697 384.216 713.513 385.064 714.569 385.672C715.625 386.248 716.841 386.536 718.217 386.536C719.401 386.536 720.489 386.328 721.481 385.912C722.505 385.496 723.369 384.888 724.073 384.088L727.433 387.496C726.313 388.808 724.953 389.8 723.353 390.472C721.753 391.144 720.057 391.48 718.265 391.48ZM740.737 391.48C739.457 391.48 738.225 391.32 737.041 391C735.857 390.648 734.769 390.168 733.777 389.56C732.785 388.92 731.921 388.152 731.185 387.256L734.545 383.896C735.345 384.824 736.257 385.528 737.281 386.008C738.337 386.456 739.521 386.68 740.833 386.68C742.017 386.68 742.913 386.504 743.521 386.152C744.129 385.8 744.433 385.288 744.433 384.616C744.433 383.912 744.145 383.368 743.569 382.984C742.993 382.6 742.241 382.28 741.313 382.024C740.417 381.736 739.457 381.448 738.433 381.16C737.441 380.872 736.481 380.488 735.553 380.008C734.657 379.496 733.921 378.808 733.345 377.944C732.769 377.08 732.481 375.96 732.481 374.584C732.481 373.112 732.817 371.848 733.489 370.792C734.193 369.736 735.169 368.92 736.417 368.344C737.697 367.768 739.217 367.48 740.977 367.48C742.833 367.48 744.465 367.816 745.873 368.488C747.313 369.128 748.513 370.104 749.473 371.416L746.113 374.776C745.441 373.944 744.673 373.32 743.809 372.904C742.945 372.488 741.953 372.28 740.833 372.28C739.777 372.28 738.961 372.44 738.385 372.76C737.809 373.08 737.521 373.544 737.521 374.152C737.521 374.792 737.809 375.288 738.385 375.64C738.961 375.992 739.697 376.296 740.593 376.552C741.521 376.808 742.481 377.096 743.473 377.416C744.497 377.704 745.457 378.12 746.353 378.664C747.281 379.176 748.033 379.88 748.609 380.776C749.185 381.64 749.473 382.776 749.473 384.184C749.473 386.424 748.689 388.2 747.121 389.512C745.553 390.824 743.425 391.48 740.737 391.48ZM769.618 391V377.704C769.618 376.168 769.122 374.904 768.13 373.912C767.17 372.92 765.922 372.424 764.386 372.424C763.362 372.424 762.45 372.648 761.65 373.096C760.85 373.544 760.226 374.168 759.778 374.968C759.33 375.768 759.106 376.68 759.106 377.704L757.042 376.552C757.042 374.792 757.426 373.24 758.194 371.896C758.962 370.52 760.018 369.448 761.362 368.68C762.738 367.88 764.274 367.48 765.97 367.48C767.698 367.48 769.234 367.864 770.578 368.632C771.922 369.4 772.978 370.472 773.746 371.848C774.514 373.192 774.898 374.76 774.898 376.552V391H769.618ZM753.826 391V356.44H759.106V391H753.826ZM789.921 391V367.96H795.201V391H789.921ZM792.561 363.736C791.665 363.736 790.913 363.432 790.305 362.824C789.729 362.216 789.441 361.464 789.441 360.568C789.441 359.672 789.729 358.92 790.305 358.312C790.913 357.704 791.665 357.4 792.561 357.4C793.489 357.4 794.241 357.704 794.817 358.312C795.393 358.92 795.681 359.672 795.681 360.568C795.681 361.464 795.393 362.216 794.817 362.824C794.241 363.432 793.489 363.736 792.561 363.736ZM808.659 391.48C807.379 391.48 806.147 391.32 804.963 391C803.779 390.648 802.691 390.168 801.699 389.56C800.707 388.92 799.843 388.152 799.107 387.256L802.467 383.896C803.267 384.824 804.179 385.528 805.203 386.008C806.259 386.456 807.443 386.68 808.755 386.68C809.939 386.68 810.835 386.504 811.443 386.152C812.051 385.8 812.355 385.288 812.355 384.616C812.355 383.912 812.067 383.368 811.491 382.984C810.915 382.6 810.163 382.28 809.235 382.024C808.339 381.736 807.379 381.448 806.355 381.16C805.363 380.872 804.403 380.488 803.475 380.008C802.579 379.496 801.843 378.808 801.267 377.944C800.691 377.08 800.403 375.96 800.403 374.584C800.403 373.112 800.739 371.848 801.411 370.792C802.115 369.736 803.091 368.92 804.339 368.344C805.619 367.768 807.139 367.48 808.899 367.48C810.755 367.48 812.387 367.816 813.795 368.488C815.235 369.128 816.435 370.104 817.395 371.416L814.035 374.776C813.363 373.944 812.595 373.32 811.731 372.904C810.867 372.488 809.875 372.28 808.755 372.28C807.699 372.28 806.883 372.44 806.307 372.76C805.731 373.08 805.443 373.544 805.443 374.152C805.443 374.792 805.731 375.288 806.307 375.64C806.883 375.992 807.619 376.296 808.515 376.552C809.443 376.808 810.403 377.096 811.395 377.416C812.419 377.704 813.379 378.12 814.275 378.664C815.203 379.176 815.955 379.88 816.531 380.776C817.107 381.64 817.395 382.776 817.395 384.184C817.395 386.424 816.611 388.2 815.043 389.512C813.475 390.824 811.347 391.48 808.659 391.48ZM838.894 391.48C837.614 391.48 836.382 391.32 835.198 391C834.014 390.648 832.926 390.168 831.934 389.56C830.942 388.92 830.078 388.152 829.342 387.256L832.702 383.896C833.502 384.824 834.414 385.528 835.438 386.008C836.494 386.456 837.678 386.68 838.99 386.68C840.174 386.68 841.07 386.504 841.678 386.152C842.286 385.8 842.59 385.288 842.59 384.616C842.59 383.912 842.302 383.368 841.726 382.984C841.15 382.6 840.398 382.28 839.47 382.024C838.574 381.736 837.614 381.448 836.59 381.16C835.598 380.872 834.638 380.488 833.71 380.008C832.814 379.496 832.078 378.808 831.502 377.944C830.926 377.08 830.638 375.96 830.638 374.584C830.638 373.112 830.974 371.848 831.646 370.792C832.35 369.736 833.326 368.92 834.574 368.344C835.854 367.768 837.374 367.48 839.134 367.48C840.99 367.48 842.622 367.816 844.03 368.488C845.47 369.128 846.67 370.104 847.63 371.416L844.27 374.776C843.598 373.944 842.83 373.32 841.966 372.904C841.102 372.488 840.11 372.28 838.99 372.28C837.934 372.28 837.118 372.44 836.542 372.76C835.966 373.08 835.678 373.544 835.678 374.152C835.678 374.792 835.966 375.288 836.542 375.64C837.118 375.992 837.854 376.296 838.75 376.552C839.678 376.808 840.638 377.096 841.63 377.416C842.654 377.704 843.614 378.12 844.51 378.664C845.438 379.176 846.19 379.88 846.766 380.776C847.342 381.64 847.63 382.776 847.63 384.184C847.63 386.424 846.846 388.2 845.278 389.512C843.71 390.824 841.582 391.48 838.894 391.48ZM864.319 391.48C862.559 391.48 860.991 391.112 859.615 390.376C858.239 389.608 857.151 388.568 856.351 387.256C855.583 385.944 855.199 384.456 855.199 382.792V376.168C855.199 374.504 855.599 373.016 856.399 371.704C857.199 370.392 858.287 369.368 859.663 368.632C861.039 367.864 862.591 367.48 864.319 367.48C866.399 367.48 868.271 368.024 869.935 369.112C871.631 370.168 872.959 371.608 873.919 373.432C874.911 375.224 875.407 377.256 875.407 379.528C875.407 381.768 874.911 383.8 873.919 385.624C872.959 387.416 871.631 388.84 869.935 389.896C868.271 390.952 866.399 391.48 864.319 391.48ZM851.983 400.6V367.96H857.263V374.152L856.351 379.768L857.263 385.336V400.6H851.983ZM863.455 386.488C864.735 386.488 865.855 386.2 866.815 385.624C867.807 385.016 868.575 384.184 869.119 383.128C869.695 382.072 869.983 380.856 869.983 379.48C869.983 378.104 869.695 376.888 869.119 375.832C868.575 374.776 867.807 373.96 866.815 373.384C865.855 372.776 864.735 372.472 863.455 372.472C862.175 372.472 861.039 372.776 860.047 373.384C859.055 373.96 858.287 374.776 857.743 375.832C857.199 376.888 856.927 378.104 856.927 379.48C856.927 380.856 857.199 382.072 857.743 383.128C858.287 384.184 859.055 385.016 860.047 385.624C861.039 386.2 862.175 386.488 863.455 386.488ZM879.826 391V367.96H885.106V391H879.826ZM885.106 378.184L883.282 377.272C883.282 374.36 883.922 372.008 885.202 370.216C886.514 368.392 888.482 367.48 891.106 367.48C892.258 367.48 893.298 367.688 894.226 368.104C895.154 368.52 896.018 369.192 896.818 370.12L893.362 373.672C892.946 373.224 892.482 372.904 891.97 372.712C891.458 372.52 890.866 372.424 890.194 372.424C888.722 372.424 887.506 372.888 886.546 373.816C885.586 374.744 885.106 376.2 885.106 378.184ZM909.23 391.48C906.99 391.48 904.958 390.952 903.134 389.896C901.31 388.808 899.854 387.352 898.766 385.528C897.71 383.704 897.182 381.672 897.182 379.432C897.182 377.192 897.71 375.176 898.766 373.384C899.854 371.592 901.31 370.168 903.134 369.112C904.958 368.024 906.99 367.48 909.23 367.48C911.502 367.48 913.55 368.008 915.374 369.064C917.198 370.12 918.638 371.56 919.694 373.384C920.782 375.176 921.326 377.192 921.326 379.432C921.326 381.672 920.782 383.704 919.694 385.528C918.638 387.352 917.198 388.808 915.374 389.896C913.55 390.952 911.502 391.48 909.23 391.48ZM909.23 386.392C910.542 386.392 911.694 386.104 912.686 385.528C913.71 384.92 914.494 384.088 915.038 383.032C915.614 381.976 915.902 380.776 915.902 379.432C915.902 378.088 915.614 376.904 915.038 375.88C914.462 374.856 913.678 374.056 912.686 373.48C911.694 372.872 910.542 372.568 909.23 372.568C907.95 372.568 906.798 372.872 905.774 373.48C904.782 374.056 903.998 374.856 903.422 375.88C902.878 376.904 902.606 378.088 902.606 379.432C902.606 380.776 902.878 381.976 903.422 383.032C903.998 384.088 904.782 384.92 905.774 385.528C906.798 386.104 907.95 386.392 909.23 386.392ZM935.173 391.48C933.221 391.48 931.477 391.048 929.941 390.184C928.437 389.32 927.253 388.136 926.389 386.632C925.557 385.096 925.141 383.336 925.141 381.352V367.96H930.421V381.112C930.421 382.232 930.597 383.192 930.949 383.992C931.333 384.76 931.877 385.352 932.581 385.768C933.317 386.184 934.181 386.392 935.173 386.392C936.709 386.392 937.877 385.944 938.677 385.048C939.509 384.12 939.925 382.808 939.925 381.112V367.96H945.205V381.352C945.205 383.368 944.773 385.144 943.909 386.68C943.077 388.184 941.909 389.368 940.405 390.232C938.901 391.064 937.157 391.48 935.173 391.48ZM954.018 391V358.36H959.298V391H954.018ZM948.498 372.76V367.96H964.818V372.76H948.498ZM968.703 391V367.96H973.983V391H968.703ZM971.343 363.736C970.447 363.736 969.695 363.432 969.087 362.824C968.511 362.216 968.223 361.464 968.223 360.568C968.223 359.672 968.511 358.92 969.087 358.312C969.695 357.704 970.447 357.4 971.343 357.4C972.271 357.4 973.023 357.704 973.599 358.312C974.175 358.92 974.463 359.672 974.463 360.568C974.463 361.464 974.175 362.216 973.599 362.824C973.023 363.432 972.271 363.736 971.343 363.736ZM995.697 391V377.704C995.697 376.168 995.201 374.904 994.209 373.912C993.249 372.92 992.001 372.424 990.465 372.424C989.441 372.424 988.529 372.648 987.729 373.096C986.929 373.544 986.305 374.168 985.857 374.968C985.409 375.768 985.185 376.68 985.185 377.704L983.121 376.552C983.121 374.792 983.505 373.24 984.273 371.896C985.041 370.52 986.097 369.448 987.441 368.68C988.817 367.88 990.353 367.48 992.049 367.48C993.777 367.48 995.313 367.928 996.657 368.824C998.001 369.688 999.057 370.824 999.825 372.232C1000.59 373.608 1000.98 375.048 1000.98 376.552V391H995.697ZM979.905 391V367.96H985.185V391H979.905ZM1015.94 401.08C1013.51 401.08 1011.38 400.632 1009.56 399.736C1007.73 398.872 1006.26 397.64 1005.14 396.04L1008.6 392.584C1009.53 393.736 1010.58 394.6 1011.77 395.176C1012.95 395.752 1014.37 396.04 1016.04 396.04C1018.12 396.04 1019.77 395.496 1020.98 394.408C1022.2 393.352 1022.81 391.896 1022.81 390.04V384.376L1023.72 379.288L1022.81 374.152V367.96H1028.09V390.04C1028.09 392.248 1027.57 394.168 1026.55 395.8C1025.53 397.464 1024.1 398.76 1022.28 399.688C1020.45 400.616 1018.34 401.08 1015.94 401.08ZM1015.7 390.52C1013.65 390.52 1011.8 390.024 1010.13 389.032C1008.5 388.008 1007.21 386.616 1006.25 384.856C1005.32 383.096 1004.85 381.128 1004.85 378.952C1004.85 376.776 1005.32 374.824 1006.25 373.096C1007.21 371.368 1008.5 370.008 1010.13 369.016C1011.8 367.992 1013.65 367.48 1015.7 367.48C1017.53 367.48 1019.13 367.848 1020.5 368.584C1021.88 369.32 1022.95 370.344 1023.72 371.656C1024.49 372.936 1024.87 374.44 1024.87 376.168V381.832C1024.87 383.528 1024.47 385.032 1023.67 386.344C1022.9 387.656 1021.83 388.68 1020.45 389.416C1019.08 390.152 1017.49 390.52 1015.7 390.52ZM1016.76 385.528C1018.04 385.528 1019.16 385.256 1020.12 384.712C1021.08 384.168 1021.81 383.416 1022.33 382.456C1022.87 381.464 1023.14 380.312 1023.14 379C1023.14 377.688 1022.87 376.552 1022.33 375.592C1021.81 374.6 1021.08 373.832 1020.12 373.288C1019.16 372.744 1018.04 372.472 1016.76 372.472C1015.48 372.472 1014.34 372.744 1013.35 373.288C1012.39 373.832 1011.64 374.6 1011.09 375.592C1010.55 376.552 1010.28 377.688 1010.28 379C1010.28 380.28 1010.55 381.416 1011.09 382.408C1011.64 383.4 1012.39 384.168 1013.35 384.712C1014.34 385.256 1015.48 385.528 1016.76 385.528ZM637.595 445V431.704C637.595 430.168 637.099 428.904 636.107 427.912C635.147 426.92 633.899 426.424 632.363 426.424C631.339 426.424 630.427 426.648 629.627 427.096C628.827 427.544 628.203 428.168 627.755 428.968C627.307 429.768 627.083 430.68 627.083 431.704L625.019 430.552C625.019 428.792 625.403 427.24 626.171 425.896C626.939 424.52 627.995 423.448 629.339 422.68C630.715 421.88 632.251 421.48 633.947 421.48C635.675 421.48 637.211 421.864 638.555 422.632C639.899 423.4 640.955 424.472 641.723 425.848C642.491 427.192 642.875 428.76 642.875 430.552V445H637.595ZM621.803 445V410.44H627.083V445H621.803ZM658.945 445.48C656.641 445.48 654.561 444.968 652.705 443.944C650.881 442.888 649.425 441.448 648.337 439.624C647.281 437.8 646.753 435.752 646.753 433.48C646.753 431.208 647.281 429.176 648.337 427.384C649.393 425.56 650.817 424.12 652.609 423.064C654.433 422.008 656.449 421.48 658.657 421.48C660.801 421.48 662.689 421.976 664.321 422.968C665.985 423.96 667.281 425.32 668.209 427.048C669.169 428.776 669.649 430.744 669.649 432.952C669.649 433.336 669.617 433.736 669.552 434.152C669.521 434.536 669.457 434.968 669.361 435.448H650.449V431.128H666.625L664.657 432.856C664.593 431.448 664.321 430.264 663.841 429.304C663.361 428.344 662.673 427.608 661.777 427.096C660.913 426.584 659.841 426.328 658.561 426.328C657.217 426.328 656.049 426.616 655.057 427.192C654.065 427.768 653.297 428.584 652.753 429.64C652.209 430.664 651.937 431.896 651.937 433.336C651.937 434.776 652.225 436.04 652.801 437.128C653.377 438.216 654.193 439.064 655.249 439.672C656.305 440.248 657.521 440.536 658.897 440.536C660.081 440.536 661.169 440.328 662.161 439.912C663.185 439.496 664.049 438.888 664.753 438.088L668.113 441.496C666.993 442.808 665.633 443.8 664.033 444.472C662.433 445.144 660.737 445.48 658.945 445.48ZM673.881 445V421.96H679.161V445H673.881ZM679.161 432.184L677.337 431.272C677.337 428.36 677.977 426.008 679.257 424.216C680.569 422.392 682.537 421.48 685.161 421.48C686.313 421.48 687.353 421.688 688.281 422.104C689.209 422.52 690.073 423.192 690.873 424.12L687.417 427.672C687.001 427.224 686.537 426.904 686.025 426.712C685.513 426.52 684.921 426.424 684.249 426.424C682.777 426.424 681.561 426.888 680.601 427.816C679.641 428.744 679.161 430.2 679.161 432.184ZM703.429 445.48C701.125 445.48 699.045 444.968 697.189 443.944C695.365 442.888 693.909 441.448 692.821 439.624C691.765 437.8 691.237 435.752 691.237 433.48C691.237 431.208 691.765 429.176 692.821 427.384C693.877 425.56 695.301 424.12 697.093 423.064C698.917 422.008 700.933 421.48 703.141 421.48C705.285 421.48 707.173 421.976 708.805 422.968C710.469 423.96 711.765 425.32 712.693 427.048C713.653 428.776 714.133 430.744 714.133 432.952C714.133 433.336 714.101 433.736 714.037 434.152C714.005 434.536 713.941 434.968 713.845 435.448H694.933V431.128H711.109L709.141 432.856C709.077 431.448 708.805 430.264 708.325 429.304C707.845 428.344 707.157 427.608 706.261 427.096C705.397 426.584 704.325 426.328 703.045 426.328C701.701 426.328 700.533 426.616 699.541 427.192C698.549 427.768 697.781 428.584 697.237 429.64C696.693 430.664 696.421 431.896 696.421 433.336C696.421 434.776 696.709 436.04 697.285 437.128C697.861 438.216 698.677 439.064 699.733 439.672C700.789 440.248 702.005 440.536 703.381 440.536C704.565 440.536 705.653 440.328 706.645 439.912C707.669 439.496 708.533 438.888 709.237 438.088L712.597 441.496C711.477 442.808 710.117 443.8 708.517 444.472C706.917 445.144 705.221 445.48 703.429 445.48ZM735.511 445.48C734.231 445.48 732.999 445.32 731.815 445C730.631 444.648 729.543 444.168 728.551 443.56C727.559 442.92 726.695 442.152 725.959 441.256L729.319 437.896C730.119 438.824 731.031 439.528 732.055 440.008C733.111 440.456 734.295 440.68 735.607 440.68C736.791 440.68 737.687 440.504 738.295 440.152C738.903 439.8 739.207 439.288 739.207 438.616C739.207 437.912 738.919 437.368 738.343 436.984C737.767 436.6 737.015 436.28 736.087 436.024C735.191 435.736 734.231 435.448 733.207 435.16C732.215 434.872 731.255 434.488 730.327 434.008C729.431 433.496 728.695 432.808 728.119 431.944C727.543 431.08 727.255 429.96 727.255 428.584C727.255 427.112 727.591 425.848 728.263 424.792C728.967 423.736 729.943 422.92 731.191 422.344C732.471 421.768 733.991 421.48 735.751 421.48C737.607 421.48 739.239 421.816 740.647 422.488C742.087 423.128 743.287 424.104 744.247 425.416L740.887 428.776C740.215 427.944 739.447 427.32 738.583 426.904C737.719 426.488 736.727 426.28 735.607 426.28C734.551 426.28 733.735 426.44 733.159 426.76C732.583 427.08 732.295 427.544 732.295 428.152C732.295 428.792 732.583 429.288 733.159 429.64C733.735 429.992 734.471 430.296 735.367 430.552C736.295 430.808 737.255 431.096 738.247 431.416C739.271 431.704 740.231 432.12 741.127 432.664C742.055 433.176 742.807 433.88 743.383 434.776C743.959 435.64 744.247 436.776 744.247 438.184C744.247 440.424 743.463 442.2 741.895 443.512C740.327 444.824 738.199 445.48 735.511 445.48ZM759.16 445.48C756.92 445.48 754.888 444.952 753.064 443.896C751.24 442.808 749.784 441.352 748.696 439.528C747.64 437.704 747.112 435.672 747.112 433.432C747.112 431.192 747.64 429.176 748.696 427.384C749.784 425.592 751.24 424.168 753.064 423.112C754.888 422.024 756.92 421.48 759.16 421.48C761.432 421.48 763.48 422.008 765.304 423.064C767.128 424.12 768.568 425.56 769.624 427.384C770.712 429.176 771.256 431.192 771.256 433.432C771.256 435.672 770.712 437.704 769.624 439.528C768.568 441.352 767.128 442.808 765.304 443.896C763.48 444.952 761.432 445.48 759.16 445.48ZM759.16 440.392C760.472 440.392 761.624 440.104 762.616 439.528C763.64 438.92 764.424 438.088 764.968 437.032C765.544 435.976 765.832 434.776 765.832 433.432C765.832 432.088 765.544 430.904 764.968 429.88C764.392 428.856 763.608 428.056 762.616 427.48C761.624 426.872 760.472 426.568 759.16 426.568C757.88 426.568 756.728 426.872 755.704 427.48C754.712 428.056 753.928 428.856 753.352 429.88C752.808 430.904 752.536 432.088 752.536 433.432C752.536 434.776 752.808 435.976 753.352 437.032C753.928 438.088 754.712 438.92 755.704 439.528C756.728 440.104 757.88 440.392 759.16 440.392ZM786.207 445.48C783.967 445.48 781.935 444.952 780.111 443.896C778.287 442.808 776.831 441.352 775.743 439.528C774.687 437.704 774.159 435.672 774.159 433.432C774.159 431.192 774.687 429.176 775.743 427.384C776.831 425.592 778.287 424.168 780.111 423.112C781.935 422.024 783.967 421.48 786.207 421.48C788.479 421.48 790.527 422.008 792.351 423.064C794.175 424.12 795.615 425.56 796.671 427.384C797.759 429.176 798.303 431.192 798.303 433.432C798.303 435.672 797.759 437.704 796.671 439.528C795.615 441.352 794.175 442.808 792.351 443.896C790.527 444.952 788.479 445.48 786.207 445.48ZM786.207 440.392C787.519 440.392 788.671 440.104 789.663 439.528C790.687 438.92 791.471 438.088 792.015 437.032C792.591 435.976 792.879 434.776 792.879 433.432C792.879 432.088 792.591 430.904 792.015 429.88C791.439 428.856 790.655 428.056 789.663 427.48C788.671 426.872 787.519 426.568 786.207 426.568C784.927 426.568 783.775 426.872 782.751 427.48C781.759 428.056 780.975 428.856 780.399 429.88C779.855 430.904 779.583 432.088 779.583 433.432C779.583 434.776 779.855 435.976 780.399 437.032C780.975 438.088 781.759 438.92 782.751 439.528C783.775 440.104 784.927 440.392 786.207 440.392ZM818.486 445V431.704C818.486 430.168 817.99 428.904 816.998 427.912C816.038 426.92 814.79 426.424 813.254 426.424C812.23 426.424 811.318 426.648 810.518 427.096C809.718 427.544 809.094 428.168 808.646 428.968C808.198 429.768 807.974 430.68 807.974 431.704L805.91 430.552C805.91 428.792 806.294 427.24 807.062 425.896C807.83 424.52 808.886 423.448 810.23 422.68C811.606 421.88 813.142 421.48 814.838 421.48C816.566 421.48 818.102 421.928 819.446 422.824C820.79 423.688 821.846 424.824 822.614 426.232C823.382 427.608 823.766 429.048 823.766 430.552V445H818.486ZM802.694 445V421.96H807.974V445H802.694ZM833.163 445.48C832.139 445.48 831.291 445.144 830.619 444.472C829.979 443.768 829.659 442.92 829.659 441.928C829.659 440.904 829.979 440.056 830.619 439.384C831.291 438.712 832.139 438.376 833.163 438.376C834.187 438.376 835.019 438.712 835.659 439.384C836.331 440.056 836.667 440.904 836.667 441.928C836.667 442.92 836.331 443.768 835.659 444.472C835.019 445.144 834.187 445.48 833.163 445.48Z" fill="black"/>
<g clip-path="url(#clip1_769_1074)">
<path fill-rule="evenodd" clip-rule="evenodd" d="M1048.27 347.504C1047.76 341.544 1044.86 336.785 1042.17 333.569C1041.05 332.23 1039.83 330.983 1038.51 329.841C1038.01 329.41 1037.5 328.997 1036.97 328.605L1036.87 328.535L1036.84 328.514L1036.83 328.508L1036.83 328.504L1035.81 327.798L1034.86 328.597L1034.85 328.607L1034.82 328.632L1034.7 328.728L1034.3 329.085C1032.28 330.946 1030.43 332.995 1028.79 335.205C1025.87 339.166 1022.86 344.804 1023.39 350.922C1023.9 356.903 1026.79 361.502 1029.49 364.565C1030.65 365.891 1031.94 367.109 1033.33 368.203L1035.07 366.14L1033.56 348.49L1036.8 348.213L1038.03 362.625L1048.22 350.527C1048.34 349.521 1048.36 348.512 1048.27 347.504ZM1047.83 356.037L1040.17 365.134L1047.19 365.313L1047.11 368.558L1037.49 368.316L1035.84 370.274C1036.74 371.051 1037.69 371.765 1038.69 372.411C1041.19 374.023 1044.81 375.688 1048.83 375.344C1052.89 374.995 1056.54 372.38 1059.04 370.095C1060.54 368.714 1061.92 367.207 1063.16 365.591L1063.22 365.507L1063.24 365.482L1063.25 365.475L1064.02 364.411L1063.15 363.436L1063.14 363.427L1063.12 363.403L1063.05 363.331L1062.8 363.066C1061.53 361.755 1060.15 360.554 1058.68 359.474C1056.1 357.608 1052.36 355.555 1048.48 355.967L1048.3 355.982L1047.83 356.037Z" fill="#93CC03"/>
</g>
</g>
<defs>
<clipPath id="clip0_769_1074">
<rect width="1398" height="745" fill="white"/>
</clipPath>
<clipPath id="clip1_769_1074">
<rect width="52" height="52" fill="white" transform="translate(1039.5 318) rotate(40.11)"/>
</clipPath>
</defs>
</svg>
